<?xml version="1.0" encoding="UTF-8"?>
<svg id="Layer_2" data-name="Layer 2" xmlns="http://www.w3.org/2000/svg" viewBox="0 0 409 409">
  <defs>
    <style>
      .cls-1, .cls-2 {
        fill: #fff;
      }

      .cls-3 {
        fill: #4d4d4d;
      }

      .cls-2 {
        font-family: PlayfairDisplay-Bold, 'Playfair Display';
        font-size: 75px;
        font-variation-settings: 'wght' 700;
      }
    </style>
  </defs>
  <g id="Layer_1-2" data-name="Layer 1">
    <g>
      <rect class="cls-3" width="409" height="409"/>
      <g>
        <path class="cls-1" d="M239.44,218.24v2.4c-2.72,.08-4.78,.38-6.18,.9-1.4,.52-2.34,1.48-2.82,2.88-.48,1.4-.72,3.58-.72,6.54v60.96c0,2.48,.18,4.32,.54,5.52,.36,1.2,1.08,2,2.16,2.4,1.08,.4,2.7,.6,4.86,.6h5.88c3.68,0,7.02-1.12,10.02-3.36,3-2.24,5.52-5.38,7.56-9.42,2.04-4.04,3.46-8.7,4.26-13.98h2.76c-.24,2.72-.36,6.24-.36,10.56,0,1.84,.04,4.52,.12,8.04,.08,3.52,.32,7.16,.72,10.92-4.08-.16-8.68-.26-13.8-.3-5.12-.04-9.68-.06-13.68-.06h-10.8c-4.48,0-9.24,.02-14.28,.06-5.04,.04-9.72,.14-14.04,.3v-2.4c2.56-.16,4.48-.48,5.76-.96,1.28-.48,2.14-1.44,2.58-2.88,.44-1.44,.66-3.6,.66-6.48v-59.52c0-2.96-.22-5.14-.66-6.54-.44-1.4-1.32-2.36-2.64-2.88-1.32-.52-3.22-.82-5.7-.9v-2.4c2,.08,4.7,.16,8.1,.24,3.4,.08,7.02,.12,10.86,.12,3.52,0,6.98-.04,10.38-.12,3.4-.08,6.22-.16,8.46-.24Z"/>
        <path class="cls-1" d="M291.04,218.24v2.4c-1.6,.24-2.72,.82-3.36,1.74-.64,.92-.9,2.12-.78,3.6,.12,1.48,.46,3.06,1.02,4.74l18.36,53.28-3.24,4.32,15.36-44.88,1.68,3.24-18.84,56.76c-.64-.08-1.32-.12-2.04-.12h-4.32c-.72,0-1.4,.04-2.04,.12l-26.88-75.12c-1.04-2.96-2.26-4.96-3.66-6-1.4-1.04-2.7-1.6-3.9-1.68v-2.4c2.4,.08,5.24,.16,8.52,.24,3.28,.08,6.4,.12,9.36,.12,3.2,0,6.06-.04,8.58-.12,2.52-.08,4.58-.16,6.18-.24Zm85.68,0v2.4c-1.76,.64-3.6,2.02-5.52,4.14-1.92,2.12-3.6,5.5-5.04,10.14l-21.12,68.52c-.64-.08-1.32-.12-2.04-.12h-4.32c-.72,0-1.4,.04-2.04,.12l-25.2-76.32c-.8-2.48-1.78-4.16-2.94-5.04-1.16-.88-2.38-1.36-3.66-1.44v-2.4c2.24,.08,4.9,.16,7.98,.24,3.08,.08,6.14,.12,9.18,.12,3.52,0,6.82-.04,9.9-.12,3.08-.08,5.54-.16,7.38-.24v2.4c-2.4,.08-4.3,.36-5.7,.84-1.4,.48-2.2,1.4-2.4,2.76-.2,1.36,.18,3.52,1.14,6.48l17.04,52.08-2.76,4.92,13.56-43.08c1.92-6.08,2.84-10.84,2.76-14.28-.08-3.44-1-5.9-2.76-7.38-1.76-1.48-4.28-2.26-7.56-2.34v-2.4c2.72,.08,5.28,.16,7.68,.24,2.4,.08,4.8,.12,7.2,.12,1.84,0,3.54-.04,5.1-.12,1.56-.08,2.94-.16,4.14-.24Z"/>
      </g>
      <text class="cls-2" transform="translate(203.73 366.98)"><tspan x="0" y="0">haus</tspan></text>
    </g>
  </g>
</svg>